<?xml version="1.0" encoding="UTF-8" standalone="no"?>
<svg width="100%" height="100%" version="1.1" viewBox="0 0 800 800" xml:space="preserve" xmlns="http://www.w3.org/2000/svg">
  <style>
    @media (prefers-color-scheme: dark) {
        .ft1 { fill: #ffffff; }
        .ft2 { fill: #95b746; }
    }
    @media (prefers-color-scheme: light) {
        .ft1 { fill: #000000; }
        .ft2 { fill: #0b4328; }
    }
  </style>
<!-- Icon: ribbon shape, original 1536x1024, scaled to fit above text -->
<g transform="translate(79, 5) scale(0.418)">
  <path d="M611.152 18.2955C616.333 18.0359 613.765 17.7442 636.746 19.266C659.727 20.7877 680.438 25.4428 701.889 34.3562C803.94 76.7605 869.462 170.724 920.895 264.177C928.956 278.824 938.188 293.833 944.493 309.308C950.181 318.326 958.889 338.97 963.371 349.114C984.893 397.66 1003.53 447.435 1019.2 498.177C1029.74 531.641 1056.69 595.366 1018.73 618.928C1002.48 629.014 979.79 629.682 961.549 625.278C892.643 608.813 842.279 535.847 807.386 478.916C786.129 443.558 765.242 407.978 744.729 372.182C725.505 339.017 705.06 302.234 679.357 273.562C668.576 261.536 652.087 249.296 636.271 245.471C617.607 240.96 598.248 249.684 582.612 259.469C556.456 275.839 535.068 296.762 514.088 319.089C508.567 324.965 497.533 338.161 492.429 342.983C478.15 360.837 463.153 378.052 449.138 396.132C420.512 433.064 262.786 641.741 265.844 673.192C266.35 678.385 269.367 682.973 273.354 686.2C284.21 694.987 299.355 697.067 312.849 697.054C274.95 704.51 221.483 711.868 188.057 690.863C84.1039 625.541 137.239 479.008 186.188 395.465C187.905 392.535 188.62 391.341 187.733 388.341C194.434 374.4 218.071 342.944 228.031 329.354C308.883 219.025 401.357 102.747 526.188 40.8194C542.533 32.7107 564.009 26.6944 581.747 22.6809C590.811 20.8762 605.971 18.5551 611.152 18.2955Z" fill="#659833" fill-rule="nonzero" stroke="none"/>
  <path d="M492.429 342.983C493.106 334.667 513.198 303.944 519.288 295.242C560.334 236.6 614.324 177.856 687.648 164.016C774.051 147.305 853.967 203.404 908.404 265.081C914.186 271.632 940.012 306.677 944.493 309.308C950.181 318.326 958.889 338.97 963.371 349.114C984.893 397.66 1003.53 447.435 1019.2 498.177C1029.74 531.641 1056.69 595.366 1018.73 618.928C1002.48 629.014 979.79 629.682 961.549 625.278C892.643 608.813 842.279 535.847 807.386 478.916C786.129 443.558 765.242 407.978 744.729 372.182C725.505 339.017 705.06 302.234 679.357 273.562C668.576 261.536 652.087 249.296 636.271 245.471C617.607 240.96 598.248 249.684 582.612 259.469C556.456 275.839 535.068 296.762 514.088 319.089C508.567 324.965 497.533 338.161 492.429 342.983Z" fill="#406021" fill-rule="nonzero" stroke="none"/>
  <path d="M187.699 388.313C188.586 391.313 187.871 392.508 186.154 395.438C137.205 478.98 84.0701 625.513 188.023 690.835C221.449 711.841 274.916 704.483 312.815 697.027C328.141 695.933 343.324 691.801 358.259 688.342C462.409 664.222 556.004 621.443 664.589 618.803C781.966 615.951 879.253 660.269 980.777 714.238C1018.14 733.802 1055.07 754.193 1091.53 775.398C1150.07 809.065 1209.08 841.91 1268.54 873.924C1285 882.82 1301.6 892.559 1318.13 901.131C1356.48 920.59 1395.11 939.494 1434.02 957.836C1452.59 966.494 1499.53 984.099 1512.96 995.784C1513.32 996.104 1513.68 996.424 1514.04 996.745L1514.04 1000.2C1505.38 1005.59 1462.64 1008.04 1453.43 1008.22C1453.43 1008.22 1407.74 1007.85 1395.74 1006.26C1319.87 996.193 1250.39 978.636 1177.9 954.032C1094.02 925.566 1011.21 890.186 928.79 857.269C856.23 828.291 782.994 797.103 705.417 783.968C548.972 756.975 407.779 845.617 261.042 883.833C184.094 903.872 64.631 933.234 30.9401 832.629C29.1028 827.143 23.0863 805.069 23.7715 786.502C23.7715 786.502 23.318 770.798 25.6812 755.156C37.855 674.575 73.4059 591.54 110.513 519.45C133.196 475.383 159.945 429.809 187.699 388.313Z" fill="#95b746" fill-rule="nonzero" stroke="none"/>
</g>
<!-- Text: stoolap -->
<g>
<path d="M105.85 488.608C98.05 477.608 88.15 472.108 76.15 472.108C68.55 472.108 62.15 474.408 56.95 479.008C51.75 483.608 49.15 489.758 49.15 497.458C49.15 505.158 58.6 514.308 77.5 524.908C96.4 535.508 105.95 540.808 106.15 540.808C119.55 550.808 126.25 562.608 126.25 576.208C126.25 594.808 120.9 609.858 110.2 621.358C99.5 632.858 84.85 638.608 66.25 638.608C42.65 638.608 24.05 626.808 10.45 603.208L29.95 584.008C32.55 591.008 37.35 597.408 44.35 603.208C51.35 609.008 58.55 611.908 65.95 611.908C74.75 611.908 81.7 608.908 86.8 602.908C91.9 596.908 94.45 589.608 94.45 581.008C94.45 574.808 92.55 569.358 88.75 564.658C84.95 559.958 72.1 552.758 50.2 543.058C28.3 533.358 17.35 519.508 17.35 501.508C17.35 486.108 22.4 473.158 32.5 462.658C42.6 452.158 55.25 446.908 70.45 446.908C91.45 446.908 108.05 453.708 120.25 467.308L105.85 488.608Z" class="ft1"/>
<path d="M179.35 633.808L150.25 633.808L150.25 541.408L136.15 541.408L136.15 517.708L150.25 517.708L150.25 475.108L179.35 475.108L179.35 517.708L202.45 517.708L202.45 541.408L179.35 541.408L179.35 633.808Z" class="ft1"/>
<path d="M326.35 574.408C326.35 593.008 320.65 608.208 309.25 620.008C297.85 631.808 282.9 637.708 264.4 637.708C245.9 637.708 230.85 631.808 219.25 620.008C207.65 608.208 201.85 593.058 201.85 574.558C201.85 556.058 207.55 540.908 218.95 529.108C230.35 517.308 245.35 511.408 263.95 511.408C282.55 511.408 297.6 517.258 309.1 528.958C320.6 540.658 326.35 555.808 326.35 574.408ZM231.25 575.008C231.25 586.008 234.35 595.008 240.55 602.008C246.75 609.008 254.75 612.508 264.55 612.508C274.35 612.508 282.2 608.758 288.1 601.258C294 593.758 296.95 584.858 296.95 574.558C296.95 564.258 293.95 555.358 287.95 547.858C281.95 540.358 274.1 536.608 264.4 536.608C254.7 536.608 246.75 540.208 240.55 547.408C234.35 554.608 231.25 563.808 231.25 575.008Z" class="ft1"/>
<path d="M458.65 574.408C458.65 593.008 452.95 608.208 441.55 620.008C430.15 631.808 415.2 637.708 396.7 637.708C378.2 637.708 363.15 631.808 351.55 620.008C339.95 608.208 334.15 593.058 334.15 574.558C334.15 556.058 339.85 540.908 351.25 529.108C362.65 517.308 377.65 511.408 396.25 511.408C414.85 511.408 429.9 517.258 441.4 528.958C452.9 540.658 458.65 555.808 458.65 574.408ZM363.55 575.008C363.55 586.008 366.65 595.008 372.85 602.008C379.05 609.008 387.05 612.508 396.85 612.508C406.65 612.508 414.5 608.758 420.4 601.258C426.3 593.758 429.25 584.858 429.25 574.558C429.25 564.258 426.25 555.358 420.25 547.858C414.25 540.358 406.4 536.608 396.7 536.608C387 536.608 379.05 540.208 372.85 547.408C366.65 554.608 363.55 563.808 363.55 575.008Z" class="ft1"/>
<path d="M506.05 633.808L476.95 633.808L476.95 428.908L506.05 428.908L506.05 633.808Z" class="ft1"/>
<path d="M644.35 633.808L615.85 633.808L615.85 623.008C607.45 632.808 594.95 637.708 578.35 637.708C561.75 637.708 548.5 631.308 538.6 618.508C528.7 605.708 523.75 590.708 523.75 573.508C523.75 556.308 528.8 541.658 538.9 529.558C549 517.458 561.95 511.408 577.75 511.408C594.55 511.408 607.25 516.408 615.85 526.408L615.85 515.308L644.35 515.308L644.35 633.808ZM619.15 574.408C619.15 563.408 616.05 554.358 609.85 547.258C603.65 540.158 595.7 536.608 586 536.608C576.3 536.608 568.4 540.058 562.3 546.958C556.2 553.858 553.15 563.008 553.15 574.408C553.15 585.808 556.25 595.008 562.45 602.008C568.65 609.008 576.65 612.508 586.45 612.508C596.25 612.508 604.15 609.108 610.15 602.308C616.15 595.508 619.15 586.208 619.15 574.408Z" class="ft2"/>
<path d="M697.75 526.108C706.15 516.308 718.65 511.408 735.25 511.408C750.85 511.408 763.8 517.608 774.1 530.008C784.4 542.408 789.55 557.008 789.55 573.808C789.55 592.008 784.45 607.208 774.25 619.408C764.05 631.608 750.85 637.708 734.65 637.708C717.25 637.708 705.15 632.708 698.35 622.708L697.75 683.908L668.65 683.908L668.65 515.308L697.75 515.308L697.75 526.108ZM759.85 574.408C759.85 564.208 756.95 555.358 751.15 547.858C745.35 540.358 737.35 536.608 727.15 536.608C717.75 536.608 709.95 540.408 703.75 548.008C697.55 555.608 694.45 564.358 694.45 574.258C694.45 584.158 697.75 593.008 704.35 600.808C710.95 608.608 718.55 612.508 727.15 612.508C737.35 612.508 745.35 608.908 751.15 601.708C756.95 594.508 759.85 585.408 759.85 574.408Z" class="ft1"/>
</g>
</svg>
