<?xml version="1.0" encoding="UTF-8" standalone="no"?>
<!DOCTYPE svg PUBLIC "-//W3C//DTD SVG 1.1//EN" "http://www.w3.org/Graphics/SVG/1.1/DTD/svg11.dtd">
<svg width="100%" height="100%" version="1.1" viewBox="0 0 800 800" xml:space="preserve" xmlns="http://www.w3.org/2000/svg" xmlns:xlink="http://www.w3.org/1999/xlink">
  <style>
    @media (prefers-color-scheme: dark) {
        .ft1 {
            fill: #ffffff;
        }
         .ft2 {
            fill: #95b746;
        }
    }
    @media (prefers-color-scheme: light) {
        .ft1 {
            fill: #000000;
        }
        .ft2 {
            fill: #0b4328;
        }
    }
  </style>
<defs>
<radialGradient cx="0" cy="0" gradientTransform="matrix(251.841 3.22843e-14 -3.63256e-14 251.841 277.968 290.64)" gradientUnits="userSpaceOnUse" id="RadialGradient" r="1">
<stop offset="0" stop-color="#406021"/>
<stop offset="0.451902" stop-color="#659833"/>
<stop offset="0.572113" stop-color="#659833"/>
<stop offset="1" stop-color="#406021"/>
</radialGradient>
<linearGradient gradientTransform="matrix(160.388 0 0 160.388 321.952 363.313)" gradientUnits="userSpaceOnUse" id="LinearGradient" x1="0" x2="1" y1="0" y2="0">
<stop offset="0" stop-color="#0b4328"/>
<stop offset="0.451028" stop-color="#207e53"/>
<stop offset="0.572707" stop-color="#207e53"/>
<stop offset="1" stop-color="#0b4328"/>
</linearGradient>
</defs>
<g>
<path d="M278.903 197.592C278.903 197.592 277.468 298.38 278.153 349.686C278.422 369.871 299.55 376.28 314.122 383.842C314.276 352.088 313.946 320.309 314.591 288.561C314.653 285.478 316.963 284.451 319.497 285.905C341.122 298.312 361.486 312.962 383.684 324.311C389.516 327.293 396.323 328.638 402.872 328.53C409.436 328.422 416.089 326.582 421.966 323.655C445.076 312.144 466.883 298.205 489.341 285.467C489.341 334.695 489.341 334.677 489.341 383.905C499.22 381.045 523.683 371.105 524.778 358.967C527.29 331.132 529.809 197.375 529.809 197.375L418.028 263.467C407.511 269.375 390.069 267.228 379.778 260.936L278.903 197.592Z" fill="url(#RadialGradient)"/>
<path d="M401.247 116.092C394.601 116.097 387.964 117.88 382.059 121.436L289.321 180.153C280.758 185.308 277.968 188.243 278.812 198.959C278.812 198.959 319.793 223.348 319.793 223.348C319.855 223.239 319.149 222.486 319.214 222.38C310.12 213.382 341.398 202.23 346.341 200.124C366.807 191.402 381.343 221.935 399.684 224.967C419.67 228.272 429.279 199.771 448.216 198.936C458.457 198.485 469.077 205.077 476.872 210.905C479.386 212.785 484.596 217.849 485.479 222.206C485.561 223.354 485.186 223.745 485.35 223.978L529.809 197.592C529.809 188.278 527.809 186.059 518.059 180.03C518.059 180.03 420.434 121.405 420.434 121.405C414.525 117.856 407.893 116.088 401.247 116.092ZM403.872 164.842C412.056 165.174 419.614 174.078 426.809 178.967C440.071 187.979 417.683 197.153 411.778 200.717C399.746 207.98 391.768 202.02 380.872 194.78C361.462 181.883 385.005 169.598 400.309 165.249C401.505 164.909 402.703 164.795 403.872 164.842Z" fill="#95b746"/>
<path d="M384.676 331.6C398.641 336.381 412.101 336 424.667 328.948C442.089 319.17 459.131 309.714 476.352 299.576C477.736 298.762 478.877 297.303 480.868 297.642C482.693 299.296 482.311 301.579 482.3 303.662C482.162 331.143 481.924 357.625 481.846 385.106C481.837 388.404 480.468 390.133 477.74 391.76C461.439 401.485 445.067 411.112 429.073 421.326C411.809 432.349 394.935 433.625 377.169 422.373C360.431 411.773 343.224 401.913 326.173 391.811C323.666 390.326 322.178 388.643 322.175 385.531C322.148 356.545 322.023 327.56 321.952 298.574C321.951 298.128 322.273 297.681 322.764 296.401C329.403 300.098 335.898 303.647 342.33 307.308C356.36 315.296 369.665 324.544 384.676 331.6M362.36 384.292C364.3 383.137 365.653 381.556 366.113 379.28C367.678 371.53 359.839 361.465 351.937 361.257C347.745 361.147 344.95 363.318 343.984 367.374C341.82 376.457 352.609 386.91 362.36 384.292Z" fill="url(#LinearGradient)"/>
</g>
<g>
<path d="M105.85 488.608C98.05 477.608 88.15 472.108 76.15 472.108C68.55 472.108 62.15 474.408 56.95 479.008C51.75 483.608 49.15 489.758 49.15 497.458C49.15 505.158 58.6 514.308 77.5 524.908C96.4 535.508 105.95 540.808 106.15 540.808C119.55 550.808 126.25 562.608 126.25 576.208C126.25 594.808 120.9 609.858 110.2 621.358C99.5 632.858 84.85 638.608 66.25 638.608C42.65 638.608 24.05 626.808 10.45 603.208L29.95 584.008C32.55 591.008 37.35 597.408 44.35 603.208C51.35 609.008 58.55 611.908 65.95 611.908C74.75 611.908 81.7 608.908 86.8 602.908C91.9 596.908 94.45 589.608 94.45 581.008C94.45 574.808 92.55 569.358 88.75 564.658C84.95 559.958 72.1 552.758 50.2 543.058C28.3 533.358 17.35 519.508 17.35 501.508C17.35 486.108 22.4 473.158 32.5 462.658C42.6 452.158 55.25 446.908 70.45 446.908C91.45 446.908 108.05 453.708 120.25 467.308L105.85 488.608Z" class="ft1"/>
<path d="M179.35 633.808L150.25 633.808L150.25 541.408L136.15 541.408L136.15 517.708L150.25 517.708L150.25 475.108L179.35 475.108L179.35 517.708L202.45 517.708L202.45 541.408L179.35 541.408L179.35 633.808Z" class="ft1"/>
<path d="M326.35 574.408C326.35 593.008 320.65 608.208 309.25 620.008C297.85 631.808 282.9 637.708 264.4 637.708C245.9 637.708 230.85 631.808 219.25 620.008C207.65 608.208 201.85 593.058 201.85 574.558C201.85 556.058 207.55 540.908 218.95 529.108C230.35 517.308 245.35 511.408 263.95 511.408C282.55 511.408 297.6 517.258 309.1 528.958C320.6 540.658 326.35 555.808 326.35 574.408ZM231.25 575.008C231.25 586.008 234.35 595.008 240.55 602.008C246.75 609.008 254.75 612.508 264.55 612.508C274.35 612.508 282.2 608.758 288.1 601.258C294 593.758 296.95 584.858 296.95 574.558C296.95 564.258 293.95 555.358 287.95 547.858C281.95 540.358 274.1 536.608 264.4 536.608C254.7 536.608 246.75 540.208 240.55 547.408C234.35 554.608 231.25 563.808 231.25 575.008Z" class="ft1"/>
<path d="M458.65 574.408C458.65 593.008 452.95 608.208 441.55 620.008C430.15 631.808 415.2 637.708 396.7 637.708C378.2 637.708 363.15 631.808 351.55 620.008C339.95 608.208 334.15 593.058 334.15 574.558C334.15 556.058 339.85 540.908 351.25 529.108C362.65 517.308 377.65 511.408 396.25 511.408C414.85 511.408 429.9 517.258 441.4 528.958C452.9 540.658 458.65 555.808 458.65 574.408ZM363.55 575.008C363.55 586.008 366.65 595.008 372.85 602.008C379.05 609.008 387.05 612.508 396.85 612.508C406.65 612.508 414.5 608.758 420.4 601.258C426.3 593.758 429.25 584.858 429.25 574.558C429.25 564.258 426.25 555.358 420.25 547.858C414.25 540.358 406.4 536.608 396.7 536.608C387 536.608 379.05 540.208 372.85 547.408C366.65 554.608 363.55 563.808 363.55 575.008Z" class="ft1"/>
<path d="M506.05 633.808L476.95 633.808L476.95 428.908L506.05 428.908L506.05 633.808Z" class="ft1"/>
<path d="M644.35 633.808L615.85 633.808L615.85 623.008C607.45 632.808 594.95 637.708 578.35 637.708C561.75 637.708 548.5 631.308 538.6 618.508C528.7 605.708 523.75 590.708 523.75 573.508C523.75 556.308 528.8 541.658 538.9 529.558C549 517.458 561.95 511.408 577.75 511.408C594.55 511.408 607.25 516.408 615.85 526.408L615.85 515.308L644.35 515.308L644.35 633.808ZM619.15 574.408C619.15 563.408 616.05 554.358 609.85 547.258C603.65 540.158 595.7 536.608 586 536.608C576.3 536.608 568.4 540.058 562.3 546.958C556.2 553.858 553.15 563.008 553.15 574.408C553.15 585.808 556.25 595.008 562.45 602.008C568.65 609.008 576.65 612.508 586.45 612.508C596.25 612.508 604.15 609.108 610.15 602.308C616.15 595.508 619.15 586.208 619.15 574.408Z" class="ft2"/>
<path d="M697.75 526.108C706.15 516.308 718.65 511.408 735.25 511.408C750.85 511.408 763.8 517.608 774.1 530.008C784.4 542.408 789.55 557.008 789.55 573.808C789.55 592.008 784.45 607.208 774.25 619.408C764.05 631.608 750.85 637.708 734.65 637.708C717.25 637.708 705.15 632.708 698.35 622.708L697.75 683.908L668.65 683.908L668.65 515.308L697.75 515.308L697.75 526.108ZM759.85 574.408C759.85 564.208 756.95 555.358 751.15 547.858C745.35 540.358 737.35 536.608 727.15 536.608C717.75 536.608 709.95 540.408 703.75 548.008C697.55 555.608 694.45 564.358 694.45 574.258C694.45 584.158 697.75 593.008 704.35 600.808C710.95 608.608 718.55 612.508 727.15 612.508C737.35 612.508 745.35 608.908 751.15 601.708C756.95 594.508 759.85 585.408 759.85 574.408Z" class="ft1"/>
</g>
</svg>
