<?xml version="1.0" encoding="UTF-8" standalone="no"?>
<svg width="1200" height="630" viewBox="0 0 1200 630" xmlns="http://www.w3.org/2000/svg">
  <!-- Background -->
  <rect width="1200" height="630" fill="#0f2535"/>

  <!-- Single ribbon icon, right side, subtle -->
  <g transform="translate(700, 80) scale(0.5)" opacity="0.1">
    <path d="M611.152 18.2955C616.333 18.0359 613.765 17.7442 636.746 19.266C659.727 20.7877 680.438 25.4428 701.889 34.3562C803.94 76.7605 869.462 170.724 920.895 264.177C928.956 278.824 938.188 293.833 944.493 309.308C950.181 318.326 958.889 338.97 963.371 349.114C984.893 397.66 1003.53 447.435 1019.2 498.177C1029.74 531.641 1056.69 595.366 1018.73 618.928C1002.48 629.014 979.79 629.682 961.549 625.278C892.643 608.813 842.279 535.847 807.386 478.916C786.129 443.558 765.242 407.978 744.729 372.182C725.505 339.017 705.06 302.234 679.357 273.562C668.576 261.536 652.087 249.296 636.271 245.471C617.607 240.96 598.248 249.684 582.612 259.469C556.456 275.839 535.068 296.762 514.088 319.089C508.567 324.965 497.533 338.161 492.429 342.983C478.15 360.837 463.153 378.052 449.138 396.132C420.512 433.064 262.786 641.741 265.844 673.192C266.35 678.385 269.367 682.973 273.354 686.2C284.21 694.987 299.355 697.067 312.849 697.054C274.95 704.51 221.483 711.868 188.057 690.863C84.1039 625.541 137.239 479.008 186.188 395.465C187.905 392.535 188.62 391.341 187.733 388.341C194.434 374.4 218.071 342.944 228.031 329.354C308.883 219.025 401.357 102.747 526.188 40.8194C542.533 32.7107 564.009 26.6944 581.747 22.6809C590.811 20.8762 605.971 18.5551 611.152 18.2955Z" fill="#ffffff" fill-rule="nonzero" stroke="none"/>
    <path d="M492.429 342.983C493.106 334.667 513.198 303.944 519.288 295.242C560.334 236.6 614.324 177.856 687.648 164.016C774.051 147.305 853.967 203.404 908.404 265.081C914.186 271.632 940.012 306.677 944.493 309.308C950.181 318.326 958.889 338.97 963.371 349.114C984.893 397.66 1003.53 447.435 1019.2 498.177C1029.74 531.641 1056.69 595.366 1018.73 618.928C1002.48 629.014 979.79 629.682 961.549 625.278C892.643 608.813 842.279 535.847 807.386 478.916C786.129 443.558 765.242 407.978 744.729 372.182C725.505 339.017 705.06 302.234 679.357 273.562C668.576 261.536 652.087 249.296 636.271 245.471C617.607 240.96 598.248 249.684 582.612 259.469C556.456 275.839 535.068 296.762 514.088 319.089C508.567 324.965 497.533 338.161 492.429 342.983Z" fill="#ffffff" fill-rule="nonzero" stroke="none"/>
    <path d="M187.699 388.313C188.586 391.313 187.871 392.508 186.154 395.438C137.205 478.98 84.0701 625.513 188.023 690.835C221.449 711.841 274.916 704.483 312.815 697.027C328.141 695.933 343.324 691.801 358.259 688.342C462.409 664.222 556.004 621.443 664.589 618.803C781.966 615.951 879.253 660.269 980.777 714.238C1018.14 733.802 1055.07 754.193 1091.53 775.398C1150.07 809.065 1209.08 841.91 1268.54 873.924C1285 882.82 1301.6 892.559 1318.13 901.131C1356.48 920.59 1395.11 939.494 1434.02 957.836C1452.59 966.494 1499.53 984.099 1512.96 995.784C1513.32 996.104 1513.68 996.424 1514.04 996.745L1514.04 1000.2C1505.38 1005.59 1462.64 1008.04 1453.43 1008.22C1453.43 1008.22 1407.74 1007.85 1395.74 1006.26C1319.87 996.193 1250.39 978.636 1177.9 954.032C1094.02 925.566 1011.21 890.186 928.79 857.269C856.23 828.291 782.994 797.103 705.417 783.968C548.972 756.975 407.779 845.617 261.042 883.833C184.094 903.872 64.631 933.234 30.9401 832.629C29.1028 827.143 23.0863 805.069 23.7715 786.502C23.7715 786.502 23.318 770.798 25.6812 755.156C37.855 674.575 73.4059 591.54 110.513 519.45C133.196 475.383 159.945 429.809 187.699 388.313Z" fill="#ffffff" fill-rule="nonzero" stroke="none"/>
  </g>

  <!-- Title -->
  <text x="100" y="250" font-family="system-ui, -apple-system, 'Segoe UI', Helvetica, Arial, sans-serif" font-size="80" font-weight="700" fill="#ffffff">Stoolap</text>

  <!-- Tagline -->
  <text x="100" y="330" font-family="system-ui, -apple-system, 'Segoe UI', Helvetica, Arial, sans-serif" font-size="30" font-weight="400" fill="#94a3b8">High-performance embedded SQL database</text>

  <!-- Features -->
  <text x="100" y="385" font-family="system-ui, -apple-system, 'Segoe UI', Helvetica, Arial, sans-serif" font-size="22" font-weight="400" fill="#64748b">Pure Rust  |  Zero C dependencies  |  ACID  |  WebAssembly</text>

  <!-- URL -->
  <text x="100" y="560" font-family="monospace" font-size="22" font-weight="400" fill="#95b746">stoolap.io</text>
</svg>
